<svg width="32" height="32" viewBox="0 0 32 32" fill="none" xmlns="http://www.w3.org/2000/svg">
<path d="M16 4C14.3438 4 13 5.34375 13 7V17.2812C13 18.3625 12.5562 19.275 12.0437 19.9375C11.3875 20.7875 11 21.8438 11 23C11 25.7625 13.2375 28 16 28C18.7625 28 21 25.7625 21 23C21 21.8438 20.6125 20.7875 19.9563 19.9438C19.4438 19.2813 19 18.3688 19 17.2875V7C19 5.34375 17.6562 4 16 4ZM9 7C9 3.1375 12.1312 0 16 0C19.8688 0 23 3.13125 23 7V17.2812C23 17.2875 23.0063 17.3 23.0125 17.3188C23.025 17.3563 23.0625 17.4187 23.1187 17.4937C24.3 19.0187 25 20.9313 25 23C25 27.9688 20.9688 32 16 32C11.0312 32 7 27.9688 7 23C7 20.925 7.7 19.0125 8.88125 17.4937C8.9375 17.4187 8.975 17.3563 8.9875 17.3188C8.99375 17.3 9 17.2875 9 17.2812V7ZM19 23C19 24.6562 17.6562 26 16 26C14.3438 26 13 24.6562 13 23C13 21.6938 13.8375 20.5813 15 20.1688V17C15 16.45 15.45 16 16 16C16.55 16 17 16.45 17 17V20.1688C18.1625 20.5813 19 21.6938 19 23Z" fill="black"/>
</svg>
