<svg width="32" height="32" viewBox="0 0 32 32" fill="none" xmlns="http://www.w3.org/2000/svg">
<path d="M16 1.77734C16.9833 1.77734 17.7778 2.57179 17.7778 3.55512V4.53845C25.1 5.29957 30.9833 10.7218 31.8833 17.6607C31.9944 18.5273 30.9222 19.0162 30.3389 18.3662C29.5611 17.4996 28.0444 16.8885 26.6666 16.8885C24.5166 16.8885 22.7222 18.4162 22.3111 20.4496C22.2167 20.9329 21.8278 21.3329 21.3333 21.3329C20.8389 21.3329 20.4555 20.9329 20.3555 20.4496C19.9444 18.4162 18.15 16.8885 16 16.8885C13.85 16.8885 12.0555 18.4162 11.6444 20.4496C11.55 20.9329 11.1611 21.3329 10.6666 21.3329C10.1722 21.3329 9.78887 20.9329 9.68887 20.4496C9.27776 18.4162 7.48332 16.8885 5.33332 16.8885C3.95554 16.8885 2.43887 17.4996 1.66109 18.3718C1.07776 19.0218 0.00553847 18.5273 0.11665 17.6607C1.01665 10.7218 6.89998 5.29957 14.2222 4.53845V3.55512C14.2222 2.57179 15.0166 1.77734 16 1.77734ZM16 18.6662C16.6833 18.6662 17.3055 18.9218 17.7778 19.344V25.6996C17.7778 28.1996 15.75 30.2218 13.2555 30.2218C11.5444 30.2218 9.97776 29.2551 9.21109 27.7218L9.08332 27.4607C8.64443 26.5829 8.99998 25.5162 9.87776 25.0773C10.7555 24.6385 11.8222 24.994 12.2611 25.8718L12.3889 26.1329C12.5555 26.4607 12.8889 26.6662 13.2555 26.6662C13.7889 26.6662 14.2222 26.2329 14.2222 25.6996V19.344C14.6944 18.9218 15.3166 18.6662 16 18.6662Z" fill="black"/>
</svg>
